<?xml version="1.0" encoding="UTF-8" standalone="no"?>
<!DOCTYPE svg PUBLIC "-//W3C//DTD SVG 1.1//EN" "http://www.w3.org/Graphics/SVG/1.1/DTD/svg11.dtd">
<svg width="100%" height="100%" viewBox="0 0 569 833" version="1.1" xmlns="http://www.w3.org/2000/svg" xmlns:xlink="http://www.w3.org/1999/xlink" xml:space="preserve" xmlns:serif="http://www.serif.com/" style="fill-rule:evenodd;clip-rule:evenodd;stroke-linejoin:round;stroke-miterlimit:2;">
    <g>
        <path d="M388,189C422,192 439,228 456,265C474,305 519,349 521,352C525,363 498,408 434,499C459,478 503,410 506,412C530,426 555,440 556,471L451,658C430,574 378,612 355,548C340,505 351,496 383,526C358,480 328,389 280,381L388,189ZM415,135C419,143 419,153 414,161C409,170 400,175 390,175L389,177L392,177C431,183 448,217 468,260C488,304 529,338 533,348C539,364 525,381 514,400C545,416 569,437 569,473L445,695C424,563 369,637 343,552C335,526 330,491 356,498C327,443 320,400 271,393L269,393L23,833L0,821L367,162C362,154 362,144 367,135C371,126 379,122 388,121C409,99 420,72 424,39C440,26 456,13 473,0C470,21 467,41 465,62C441,83 424,107 415,135ZM469,7C472,8 428,42 428,42C422,73 411,106 390,125C376,125 369,135 368,145C375,141 384,140 392,142L469,7Z" style="fill:white;stroke:black;stroke-width:4.5px;"/>
    </g>
</svg>
